<?xml version="1.0" encoding="UTF-8" standalone="no"?>
<svg
   xmlns:dc="http://purl.org/dc/elements/1.1/"
   xmlns:cc="http://creativecommons.org/ns#"
   xmlns:rdf="http://www.w3.org/1999/02/22-rdf-syntax-ns#"
   xmlns:svg="http://www.w3.org/2000/svg"
   xmlns="http://www.w3.org/2000/svg"
   xmlns:sodipodi="http://sodipodi.sourceforge.net/DTD/sodipodi-0.dtd"
   xmlns:inkscape="http://www.inkscape.org/namespaces/inkscape"
   version="1.1"
   id="svg2"
   inkscape:version="0.48.4 r9939"
   width="1029.4062"
   height="782"
   sodipodi:docname="ivorywaltz_edit.svg">
  <title
     id="title5725">Ivory Waltz Font</title>
  <metadata
     id="metadata1886">
    <rdf:RDF>
      <cc:Work
         rdf:about="">
        <dc:format>image/svg+xml</dc:format>
        <dc:type
           rdf:resource="http://purl.org/dc/dcmitype/StillImage" />
        <dc:title>Ivory Waltz Font</dc:title>
        <cc:license
           rdf:resource="https://creativecommons.org/about/cc0" />
        <dc:creator>
          <cc:Agent>
            <dc:title>CNIAngel</dc:title>
          </cc:Agent>
        </dc:creator>
      </cc:Work>
    </rdf:RDF>
  </metadata>
  <defs
     id="defs1884" />
  <sodipodi:namedview
     pagecolor="#ffffff"
     bordercolor="#666666"
     borderopacity="1"
     objecttolerance="10"
     gridtolerance="10"
     guidetolerance="10"
     inkscape:pageopacity="0"
     inkscape:pageshadow="2"
     inkscape:window-width="1920"
     inkscape:window-height="1018"
     id="namedview1882"
     showgrid="false"
     fit-margin-top="0"
     fit-margin-left="0"
     fit-margin-right="0"
     fit-margin-bottom="0"
     inkscape:zoom="0.89702956"
     inkscape:cx="332.02346"
     inkscape:cy="375.26216"
     inkscape:window-x="-8"
     inkscape:window-y="-8"
     inkscape:window-maximized="1"
     inkscape:current-layer="svg2" />
  <path
     id="polygon288"
     style="fill:#000000;fill-opacity:1;stroke:none;stroke-width:1;stroke-linejoin:bevel;stroke-opacity:1"
     d="m 162.16,200.62498 -11.55,-20 23.1,0 z m 11.55,-20 -11.55,-20 23.09,0 z m -11.55,-20 -11.55,20 23.1,0 z m -23.09,80 -11.55,-20 23.09,0 z m 11.54,-60 -11.54,-20 23.09,0 z m -23.09,40 -11.55,20 23.1,0 z m 11.55,-60 -11.55,20 23.09,0 z m -23.1,120 -11.54,-20 23.09,0 z m 11.55,-20 -11.55,-20 23.1,0 z m -11.55,-20 -11.54,-20 23.09,0 z m 11.55,-60 -11.55,-20 23.1,0 z m -23.09,80 -11.550001,20 23.090001,0 z m 11.54,-20 -11.54,20 23.09,0 z m -11.54,-20 -11.550001,20 23.090001,0 z m 11.54,-60 -11.54,20 23.09,0 z m -11.54,140 -11.550001,-20 23.090001,0 z m 0,-120 -11.550001,-20 23.090001,0 z m -11.550001,100 -11.55,20 23.100001,0 z m 0,-120 -11.55,20 23.100001,0 z m -11.55,140 -11.549999,-20 23.1,0 z m -11.549999,-100 -11.54,-20 23.089999,0 z m 11.549999,-20 -11.549999,-20 23.1,0 z m -11.549999,100 -11.54,20 23.089999,0 z m -11.54,-100 -11.550001,20 23.090001,0 z m 11.54,-20 -11.54,20 23.089999,0 z m -11.54,140 -11.550001,-20 23.090001,0 z m -11.550001,-60 -11.549999,-20 23.1,0 z m 11.55,-20 -11.55,-20 23.090001,0 z m -11.55,60 -11.549999,20 23.1,0 z m -11.549999,-60 -11.54,20 23.089999,0 z m 11.549999,-20 -11.549999,20 23.1,0 z m -11.549999,100 -11.54,-20 23.089999,0 z m -11.54,-20 -11.55,-20 23.09,0 z m 11.54,-20 -11.54,-20 23.089999,0 z m -11.54,20 -11.55,20 23.09,0 z m -11.55,-20 -11.55,20 23.1,0 z m 11.55,-20 -11.55,20 23.09,0 z m -11.55,60 -11.55,-20 23.1,0 z"
     inkscape:connector-curvature="0" />
  <path
     id="polygon618"
     style="fill:#000000;fill-opacity:1;stroke:none;stroke-width:1;stroke-linejoin:bevel;stroke-opacity:1"
     d="m 353.97925,200.62498 -11.54,-20 23.09,0 z m -11.54,-20 -11.55,20 23.09,0 z m 11.54,-20 -11.54,20 23.09,0 z m -23.09,80 -11.55,-20 23.1,0 z m 11.55,-20 -11.55,-20 23.09,0 z m -23.1,0 -11.54,20 23.09,0 z m 11.55,-20 -11.55,20 23.1,0 z m -23.09,80 -11.55,-20 23.09,0 z m 11.54,-20 -11.54,-20 23.09,0 z m -11.54,-20 -11.55,-20 23.09,0 z m -11.55,20 -11.55,20 23.1,0 z m 11.55,-20 -11.55,20 23.09,0 z m -11.55,-20 -11.55,20 23.1,0 z m 0,80 -11.55,-20 23.1,0 z m -11.55,-60 -11.55,-20 23.1,0 z m 0,40 -11.55,20 23.1,0 z m -11.55,-60 -11.54,20 23.09,0 z m -11.54,20 -11.55,-20 23.09,0 z m 0,-40 -11.55,-20 23.09,0 z m -11.55,20 -11.55,20 23.1,0 z m 0,-40 -11.55,20 23.1,0 z m 11.55,-20 -11.55,20 23.09,0 z m -23.1,80 -11.54,-20 23.09,0 z m 11.55,-20 -11.55,-20 23.1,0 z m -23.09,0 -11.55,20 23.09,0 z m 11.54,-20 -11.54,20 23.09,0 z m -23.09,80 -11.55,-20 23.1,0 z m 11.55,-20 -11.55,-20 23.09,0 z m -23.1,0 -11.54,20 23.09,0 z m 11.55,-20 -11.55,20 23.1,0 z m -11.55,60 -11.54,-20 23.09,0 z m -11.54,-20 -11.55,20 23.09,0 z"
     inkscape:connector-curvature="0" />
  <path
     id="polygon964"
     style="fill:#000000;fill-opacity:1;stroke:none;stroke-width:1;stroke-linejoin:bevel;stroke-opacity:1"
     d="m 534.2685,200.62498 -11.55,-20 23.1,0 z m 11.55,-20 -11.55,-20 23.09,0 z m -11.55,-20 -11.55,20 23.1,0 z m -11.55,20 -11.55,-20 23.1,0 z m -11.55,-20 -11.54,20 23.09,0 z m -23.09,40 -11.55,-20 23.1,0 z m 11.55,-20 -11.55,-20 23.09,0 z m -23.1,0 -11.54,20 23.09,0 z m 11.55,-20 -11.55,20 23.1,0 z m -11.55,140 -11.54,-20 23.09,0 z m -11.54,-60 -11.55,-20 23.09,0 z m 11.54,-20 -11.54,-20 23.09,0 z m 0,-40 -11.54,-20 23.09,0 z m -11.54,100 -11.55,20 23.09,0 z m -11.55,-60 -11.55,20 23.1,0 z m 11.55,-20 -11.55,20 23.09,0 z m 0,-40 -11.55,20 23.09,0 z m -11.55,140 -11.55,-20 23.1,0 z m -11.55,-20 -11.55,-20 23.1,0 z m 11.55,-20 -11.55,-20 23.1,0 z m 0,-80 -11.55,-20 23.1,0 z m -11.55,100 -11.55,20 23.1,0 z m -11.54,-20 -11.55,20 23.09,0 z m 11.54,-20 -11.55,20 23.1,0 z m 0,-80 -11.55,20 23.1,0 z m -11.54,140 -11.55,-20 23.09,0 z m -11.55,-20 -11.55,20 23.1,0 z m -11.55,20 -11.55,-20 23.1,0 z m -11.55,-20 -11.54,20 23.09,0 z m -11.54,20 -11.55,-20 23.09,0 z m -11.55,-20 -11.55,20 23.1,0 z"
     inkscape:connector-curvature="0" />
  <path
     id="polygon1262"
     style="fill:#000000;fill-opacity:1;stroke:none;stroke-width:1;stroke-linejoin:bevel;stroke-opacity:1"
     d="m 714.53775,200.62498 -11.54,-20 23.09,0 z m -11.54,-20 -11.55,20 23.09,0 z m 11.54,-20 -11.54,20 23.09,0 z m -23.09,80 -11.55,-20 23.1,0 z m 11.55,-20 -11.55,-20 23.09,0 z m -23.1,0 -11.55,20 23.1,0 z m 11.55,-20 -11.55,20 23.1,0 z m -23.1,80 -11.54,-20 23.09,0 z m 11.55,-20 -11.55,-20 23.1,0 z m -23.09,0 -11.55,20 23.09,0 z m 11.54,-20 -11.54,20 23.09,0 z m -11.54,60 -11.55,-20 23.09,0 z m -11.55,-20 -11.55,20 23.1,0 z m -11.55,20 -11.54,-20 23.09,0 z m -11.54,-20 -11.55,20 23.09,0 z m -11.55,20 -11.55,-20 23.1,0 z m -11.55,-20 -11.54,20 23.09,0 z m -11.54,20 -11.55,-20 23.09,0 z m -11.55,-20 -11.55,-20 23.1,0 z m 0,0 -11.55,20 23.1,0 z m -11.55,-20 -11.55,20 23.1,0 z m 11.55,-20 -11.55,20 23.1,0 z m -11.55,60 -11.55,-20 23.1,0 z m -11.55,-20 -11.54,20 23.09,0 z"
     inkscape:connector-curvature="0" />
  <path
     id="polygon1572"
     style="fill:#000000;fill-opacity:1;stroke:none;stroke-width:1;stroke-linejoin:bevel;stroke-opacity:1"
     d="m 894.82702,200.62498 -11.55,-20 23.09,0 z m -11.55,-20 -11.55,20 23.1,0 z m 11.55,-20 -11.55,20 23.09,0 z m -11.55,60 -11.55,-20 23.1,0 z m -23.09,0 -11.55,20 23.09,0 z m 11.54,-20 -11.54,20 23.09,0 z m -23.09,80 -11.55,-20 23.1,0 z m 11.55,-20 -11.55,-20 23.09,0 z m -11.55,-20 -11.55,-20 23.1,0 z m -11.55,20 -11.55,20 23.1,0 z m 11.55,-20 -11.55,20 23.1,0 z m -11.55,-20 -11.55,20 23.1,0 z m 0,80 -11.55,-20 23.1,0 z m -11.55,-60 -11.54,-20 23.09,0 z m 0,40 -11.54,20 23.09,0 z m -11.54,-60 -11.55,20 23.09,0 z m -11.55,20 -11.55,-20 23.1,0 z m 0,-40 -11.55,-20 23.1,0 z m -11.55,20 -11.54,20 23.09,0 z m 0,-40 -11.54,20 23.09,0 z m 11.55,-20 -11.55,20 23.1,0 z m -23.09,80 -11.55,-20 23.09,0 z m 11.54,-20 -11.54,-20 23.09,0 z m -23.09,0 -11.55,20 23.1,0 z m 11.55,-20 -11.55,20 23.09,0 z m -23.1,80 -11.54,-20 23.09,0 z m 11.55,-20 -11.55,-20 23.1,0 z m -23.09,0 -11.55,20 23.09,0 z m 11.54,-20 -11.54,20 23.09,0 z m -11.54,60 -11.55,-20 23.09,0 z m -11.55,-20 -11.55,20 23.1,0 z"
     inkscape:connector-curvature="0" />
  <path
     id="polygon1710"
     style="fill:#000000;fill-opacity:1;stroke:none;stroke-width:1;stroke-linejoin:bevel;stroke-opacity:1"
     d="m 1017.3663,300.62498 -11.55,-20 23.09,0 z m -11.55,-20 -11.55003,20 23.10003,0 z m -11.55003,20 -11.55,-20 23.10003,0 z m -11.55,-100 -11.54,-20 23.09,0 z m 0,80 -11.54,20 23.09,0 z m -11.54,-100 -11.55,20 23.09,0 z m 11.54,-20 -11.54,20 23.09,0 z m -11.54,140 -11.55,-20 23.09,0 z m -11.55,-60 -11.55,-20 23.1,0 z m 11.55,-20 -11.55,-20 23.09,0 z m -11.55,60 -11.55,20 23.1,0 z m -11.55,-60 -11.54,20 23.09,0 z m 11.55,-20 -11.55,20 23.1,0 z m -11.55,100 -11.54,-20 23.09,0 z m -11.54,-20 -11.55,-20 23.09,0 z m 11.54,-20 -11.54,-20 23.09,0 z m -11.54,20 -11.55,20 23.09,0 z m -11.55,-20 -11.55,20 23.1,0 z m 11.55,-20 -11.55,20 23.09,0 z m -11.55,60 -11.55,-20 23.1,0 z m -11.55,-20 -11.54,20 23.09,0 z"
     inkscape:connector-curvature="0" />
  <path
     id="polygon174"
     style="fill:#000000;fill-opacity:1;stroke:none;stroke-width:1;stroke-linejoin:bevel;stroke-opacity:1"
     d="m 173.7,40.5 -11.54,-20 23.09,0 z m -11.54,-20 -11.55,20 23.09,0 z m 11.54,-20 -11.54,20 23.09,0 z m -23.09,80.000001 -11.55,-20 23.1,0 z m 11.55,-20 L 150.61,40.5 l 23.09,0 z m 0,-40.000001 -11.55,-20 23.09,0 z m -23.1,40.000001 -11.55,20 23.1,0 z M 150.61,40.5 l -11.55,20.000001 23.1,0 z m 0,-40 -11.55,20 23.1,0 z m -23.1,119.99999 -11.54,-20 23.09,0 z m 11.55,-20 -11.55,-19.999989 23.1,0 z m -11.55,-19.999989 -11.54,-20 23.09,0 z M 139.06,20.5 l -11.55,-20 23.1,0 z m -23.09,79.99999 -11.55,20 23.09,0 z m 11.54,-19.999989 -11.54,19.999989 23.09,0 z m -11.54,-20 -11.55,20 23.09,0 z M 127.51,0.5 l -11.54,20 23.09,0 z m -11.54,139.99999 -11.55,-20 23.09,0 z m -11.55,-59.999989 -11.55,-20 23.1,0 z M 115.97,20.5 l -11.55,-20 23.09,0 z m -11.55,99.99999 -11.55,20 23.1,0 z m -11.55,-59.999989 -11.54,20 23.09,0 z M 104.42,0.5 l -11.55,20 23.1,0 z m -23.09,80.000001 -11.55,-20 23.09,0 z m 0,-40.000001 -11.55,-20 23.09,0 z m 11.54,-20 -11.54,-20 23.09,0 z m -23.09,40.000001 -11.55,20 23.1,0 z m 0,-40.000001 -11.55,20 23.1,0 z m 11.55,-20 -11.55,20 23.09,0 z m -23.1,80.000001 -11.54,-20 23.09,0 z m 11.55,-20 L 58.23,40.5 l 23.1,0 z m -23.1,0 -11.54,20 23.09,0 z M 58.23,40.5 46.69,60.500001 l 23.09,0 z m -23.09,79.99999 -11.55001,-20 23.09001,0 z m 11.54,-20 -11.54,-19.999989 23.09,0 z m -23.09001,0 -11.55,20 23.10001,0 z M 35.14,80.500001 23.58999,100.49999 l 23.09001,0 z m -11.55001,59.999989 -11.55,-20 23.10001,0 z m -11.55,-20 -11.53999,20 23.08999,0 z"
     inkscape:connector-curvature="0" />
  <path
     id="polygon506"
     style="fill:#000000;fill-opacity:1;stroke:none;stroke-width:1;stroke-linejoin:bevel;stroke-opacity:1"
     d="m 340.13126,40.5 -11.55,-20.000001 23.09,0 z m -11.55,-20.000001 -11.55,20.000001 23.1,0 z M 340.13126,0.5 l -11.55,19.999999 23.09,0 z m -11.55,59.999999 -11.55,-19.999999 23.1,0 z m 0,-40 -11.55,-19.999999 23.1,0 z m -23.1,40 -11.54,20.000001 23.09,0 z m 11.55,-19.999999 -11.55,19.999999 23.1,0 z m 0,-40 -11.55,19.999999 23.1,0 z m -23.09,119.99999 -11.55,-19.99999 23.09,0 z m 11.54,-19.99999 -11.54,-20 23.09,0 z m -11.54,-20 -11.55,-20.000001 23.09,0 z m 11.54,-60.000001 -11.54,-19.999999 23.09,0 z m -23.09,80.000001 -11.55,19.99999 23.1,0 z m 11.55,-20 -11.55,20 23.09,0 z m -11.55,-20.000001 -11.55,20.000001 23.1,0 z M 293.94126,0.5 l -11.55,19.999999 23.09,0 z m -11.55,139.99999 -11.55,-20 23.1,0 z m -11.55,-59.99999 -11.54,-20.000001 23.09,0 z m 11.55,-60.000001 -11.55,-19.999999 23.1,0 z m -11.55,99.999991 -11.54,20 23.09,0 z m -11.54,-59.999991 -11.55,20.000001 23.09,0 z M 270.84126,0.5 l -11.54,19.999999 23.09,0 z m -11.54,139.99999 -11.55,-20 23.09,0 z m -11.55,-59.99999 -11.55,-20.000001 23.1,0 z m 0,-40 -11.55,-20.000001 23.1,0 z m 11.55,-20.000001 -11.55,-19.999999 23.09,0 z m -11.55,99.999991 -11.55,20 23.1,0 z m -11.55,-59.999991 -11.54,20.000001 23.09,0 z m 0,-40 -11.54,20.000001 23.09,0 z M 247.75126,0.5 l -11.55,19.999999 23.1,0 z m -11.55,139.99999 -11.54,-20 23.09,0 z m -11.54,-59.99999 -11.55,-20.000001 23.09,0 z m 11.54,-20.000001 -11.54,-19.999999 23.09,0 z m -11.54,59.999991 -11.55,20 23.09,0 z m -11.55,-59.999991 -11.55,20.000001 23.1,0 z m 11.55,-19.999999 -11.55,19.999999 23.09,0 z m -11.55,99.99999 -11.55,-20 23.1,0 z m -11.55,-20 -11.54,-19.99999 23.09,0 z m 11.55,-19.99999 -11.55,-20 23.1,0 z m -11.55,19.99999 -11.54,20 23.09,0 z m -11.54,-19.99999 -11.55001,19.99999 23.09001,0 z m 11.54,-20 -11.54,20 23.09,0 z m -11.54,59.99999 -11.55001,-20 23.09001,0 z m -11.55001,-20 -11.55,20 23.10001,0 z"
     inkscape:connector-curvature="0" />
  <path
     id="polygon842"
     style="fill:#000000;fill-opacity:1;stroke:none;stroke-width:1;stroke-linejoin:bevel;stroke-opacity:1"
     d="m 506.55251,40.5 -11.55,-20 23.1,0 z m 11.55,-20 -11.55,-20 23.09,0 z m -11.55,-20 -11.55,20 23.1,0 z m -11.55,20 -11.54,-20 23.09,0 z m -11.54,-20 -11.55,20 23.09,0 z m -11.55,20 -11.55,-20 23.1,0 z m -11.55,-20 -11.55,20 23.1,0 z m -11.54,140 -11.55,-20 23.09,0 z m 0,-120 -11.55,-20 23.09,0 z m -11.55,100 -11.55,20 23.1,0 z m 0,-120 -11.55,20 23.1,0 z m -11.55,140 -11.55,-20 23.1,0 z m -11.55,-100 -11.54,-20 23.09,0 z m 11.55,-20 -11.55,-20 23.1,0 z m -11.55,100 -11.54,20 23.09,0 z m -11.54,-100 -11.55,20 23.09,0 z m 11.54,-20 -11.54,20 23.09,0 z m -11.54,140 -11.55,-20 23.09,0 z m -11.55,-60 -11.55,-20 23.1,0 z m 11.55,-20 -11.55,-20 23.09,0 z m -11.55,60 -11.55,20 23.1,0 z m -11.55,-60 -11.54,20 23.09,0 z m 11.55,-20 -11.55,20 23.1,0 z m -11.55,100 -11.54,-20 23.09,0 z m -11.54,-20 -11.55,-20 23.09,0 z m 11.54,-20 -11.54,-20 23.09,0 z m -11.54,20 -11.55,20 23.09,0 z m -11.55,-20 -11.55,20 23.1,0 z m 11.55,-20 -11.55,20 23.09,0 z m -11.55,60 -11.55,-20 23.1,0 z m -11.55,-20 -11.55,20 23.1,0 z"
     inkscape:connector-curvature="0" />
  <path
     id="polygon1160"
     style="fill:#000000;fill-opacity:1;stroke:none;stroke-width:1;stroke-linejoin:bevel;stroke-opacity:1"
     d="m 672.96374,40.499999 -11.54,-20 23.09,0 z m -11.54,-20 -11.55,20 23.09,0 z M 672.96374,0.5 l -11.54,19.999999 23.09,0 z m -23.09,79.999999 -11.55,-20 23.1,0 z m 11.55,-20 -11.55,-20 23.09,0 z m -11.55,-20 -11.55,-20 23.1,0 z m 11.55,-20 -11.55,-19.999999 23.09,0 z m -23.1,40 -11.54,20 23.09,0 z m 11.55,-20 -11.55,20 23.1,0 z m 0,-39.999999 -11.55,19.999999 23.1,0 z m -23.09,120 -11.55,-20 23.09,0 z m 11.54,-20 -11.54,-20.000001 23.09,0 z m 0,-80.000001 -11.54,-19.999999 23.09,0 z m -23.09,80.000001 -11.55,20 23.1,0 z m 11.55,-20.000001 -11.55,20.000001 23.09,0 z m 0,-79.999999 -11.55,19.999999 23.09,0 z m -11.55,140 -11.55,-20 23.1,0 z m 0,-120.000001 -11.55,-19.999999 23.1,0 z m -11.55,100.000001 -11.54,20 23.09,0 z m 0,-120 -11.54,19.999999 23.09,0 z m -11.54,140 -11.55,-20 23.09,0 z m -11.55,-100.000001 -11.55,-20 23.1,0 z m 11.55,-20 -11.55,-19.999999 23.09,0 z m -11.55,100.000001 -11.55,20 23.1,0 z m -11.55,-100.000001 -11.55,20 23.1,0 z M 580.59374,0.5 l -11.55,19.999999 23.1,0 z m -11.55,140 -11.55,-20 23.1,0 z m -11.55,-60.000001 -11.54,-20 23.09,0 z m 11.55,-20 -11.55,-20 23.1,0 z m -11.55,60.000001 -11.54,20 23.09,0 z m -11.54,-60.000001 -11.55,20 23.09,0 z m 11.54,-20 -11.54,20 23.09,0 z m -11.54,100.000001 -11.55,-20 23.09,0 z m -11.55,-20 -11.55,-20 23.1,0 z m 11.55,-20 -11.55,-20.000001 23.09,0 z m -11.55,20 -11.55,20 23.1,0 z m -11.55,-20 -11.54,20 23.09,0 z m 11.55,-20.000001 -11.55,20.000001 23.1,0 z m -11.55,60.000001 -11.54,-20 23.09,0 z m -11.54,-20 -11.55,20 23.09,0 z"
     inkscape:connector-curvature="0" />
  <path
     id="polygon1446"
     style="fill:#000000;fill-opacity:1;stroke:none;stroke-width:1;stroke-linejoin:bevel;stroke-opacity:1"
     d="m 839.39498,40.5 -11.55,-20 23.1,0 z m 11.55,-20 -11.55,-20 23.09,0 z m -11.55,-20 -11.55,20 23.1,0 z m -11.55,20 -11.55,-20 23.1,0 z m -11.55,-20 -11.54,20 23.09,0 z m -23.09,80 -11.55,-20 23.1,0 z m 11.55,-60 -11.55,-20 23.09,0 z m -23.1,40 -11.54,20 23.09,0 z m 11.55,-60 -11.55,20 23.1,0 z m -11.55,140 -11.54,-20 23.09,0 z m -11.54,-60 -11.55,-20 23.09,0 z m 11.54,-60 -11.54,-20 23.09,0 z m -11.54,100 -11.55,20 23.09,0 z m -11.55,-60 -11.55,20 23.1,0 z m 11.55,-60 -11.55,20 23.09,0 z m -11.55,140 -11.55,-20 23.1,0 z m -11.55,-60 -11.54,-20 23.09,0 z m 0,-40 -11.54,-20 23.09,0 z m 11.55,-20 -11.55,-20 23.1,0 z m -11.55,100 -11.54,20 23.09,0 z m -11.54,-60 -11.55,20 23.09,0 z m 0,-40 -11.55,20 23.09,0 z m 11.54,-20 -11.54,20 23.09,0 z m -11.54,140 -11.55,-20 23.09,0 z m -11.55,-60 -11.55,-20 23.1,0 z m 11.55,-20 -11.55,-20 23.09,0 z m -11.55,60 -11.55,20 23.1,0 z m -11.55,-60 -11.55,20 23.1,0 z m 11.55,-20 -11.55,20 23.1,0 z m -11.55,100 -11.55,-20 23.1,0 z m -11.55,-20 -11.54,-20 23.09,0 z m 11.55,-20 -11.55,-20 23.1,0 z m -11.55,20 -11.54,20 23.09,0 z m -11.54,-20 -11.55,20 23.09,0 z m 11.54,-20 -11.54,20 23.09,0 z m -11.54,60 -11.55,-20 23.09,0 z m -11.55,-20 -11.55,20 23.1,0 z"
     inkscape:connector-curvature="0" />
  <path
     id="polygon1748"
     style="fill:#000000;fill-opacity:1;stroke:none;stroke-width:1;stroke-linejoin:bevel;stroke-opacity:1"
     d="m 1005.8063,40.5 -11.54007,-20 23.09007,0 z m 11.55,-20 -11.55,-20 23.1,0 z m -11.55,-20 -11.54007,20 23.09007,0 z m -11.54007,20 -11.55,-20 23.09007,0 z m -11.55,-20 -11.55,20 23.1,0 z m -11.55,20 -11.55,-20 23.1,0 z m -23.09,40 -11.55,20 23.09,0 z m 11.54,-60 -11.54,20 23.09,0 z m -23.09,80 -11.55,-20 23.1,0 z m 11.55,-60 -11.55,-20 23.09,0 z m -23.1,40 -11.54,20 23.09,0 z m 11.55,-60 -11.55,20 23.1,0 z m -23.09,80 -11.55,-20 23.09,0 z m 0,-40 -11.55,-20 23.09,0 z m 11.54,-20 -11.54,-20 23.09,0 z m -23.09,40 -11.55,20 23.1,0 z m 0,-40 -11.55,20 23.1,0 z m 11.55,-20 -11.55,20 23.09,0 z m -23.1,80 -11.54,-20 23.09,0 z m 11.55,-20 -11.55,-20 23.1,0 z m -23.09,0 -11.55,20 23.09,0 z m 11.54,-20 -11.54,20 23.09,0 z m -23.09,80 -11.55,-20 23.1,0 z m 11.55,-20 -11.55,-20 23.09,0 z m -23.1,0 -11.55,20 23.1,0 z m 11.55,-20 -11.55,20 23.1,0 z m -11.55,60 -11.55,-20 23.1,0 z m -11.55,-20 -11.54,20 23.09,0 z"
     inkscape:connector-curvature="0" />
  <path
     id="polygon418"
     style="fill:#000000;fill-opacity:1;stroke:none;stroke-width:1;stroke-linejoin:bevel;stroke-opacity:1"
     d="m 173.71,360.75 -11.55,-20 23.09,0 z m -11.55,-20 -11.55,20 23.1,0 z m 11.55,-20 -11.55,20 23.09,0 z m -23.1,80 -11.54,-20 23.09,0 z m 11.55,-20 -11.55,-20 23.1,0 z m 0,-40 -11.55,-20 23.1,0 z m -23.09,40 -11.55,20 23.09,0 z m 11.54,-20 -11.54,20 23.09,0 z m 0,-40 -11.54,20 23.09,0 z m -23.09,120 -11.55,-20 23.1,0 z m 11.55,-20 -11.55,-20 23.09,0 z m -11.55,-60 -11.55,-20 23.1,0 z m -11.55,60 -11.54,20 23.09,0 z m 11.55,-20 -11.55,20 23.1,0 z m -11.55,-60 -11.54,20 23.09,0 z m 11.55,-20 -11.55,20 23.1,0 z m -11.55,140 -11.54,-20 23.09,0 z m -11.54,-60 -11.55,-20 23.09,0 z m 11.54,-20 -11.54,-20 23.09,0 z m 0,-40 -11.54,-20 23.09,0 z m -11.54,100 -11.55,20 23.09,0 z m -11.55,-60 -11.55,20 23.1,0 z m 11.55,-20 -11.55,20 23.09,0 z m 0,-40 -11.55,20 23.09,0 z m -23.1,40 -11.54,-20 23.09,0 z m 11.55,-20 -11.55,-20 23.1,0 z m -23.09,0 -11.55,20 23.09,0 z m 11.54,-20 -11.54,20 23.09,0 z m -23.09,80 -11.55,-20 23.1,0 z m 11.55,-20 -11.55,-20 23.09,0 z m -23.1,0 -11.55,20 23.1,0 z m 11.55,-20 -11.55,20 23.1,0 z m -23.1,80 -11.54,-20 23.09,0 z m 11.55,-20 -11.55,-20 23.1,0 z m -23.09,0 -11.55,20 23.09,0 z m 11.54,-20 -11.54,20 23.09,0 z m -11.54,60 -11.55,-20 23.09,0 z m -11.55,-20 -11.55,20 23.1,0 z"
     inkscape:connector-curvature="0" />
  <path
     id="polygon724"
     style="fill:#000000;fill-opacity:1;stroke:none;stroke-width:1;stroke-linejoin:bevel;stroke-opacity:1"
     d="m 336.65527,360.75 -11.55,-20 23.1,0 z m 11.55,-20 -11.55,-20 23.1,0 z m -23.09,0 -11.55,20 23.09,0 z m 11.54,-20 -11.55,20 23.1,0 z m -23.09,80 -11.55,-20 23.1,0 z m 11.55,-20 -11.55,-20 23.09,0 z m -23.1,0 -11.55,20 23.1,0 z m 11.55,-20 -11.55,20 23.1,0 z m -23.1,80 -11.54,-20 23.09,0 z m 11.55,-20 -11.55,-20 23.1,0 z m -23.09,0 -11.55,20 23.09,0 z m 11.54,-20 -11.54,20 23.09,0 z m -11.54,-20 -11.55,20 23.09,0 z m 0,80 -11.55,-20 23.09,0 z m 0,-40 -11.55,-20 23.09,0 z m -11.55,-20 -11.55,-20 23.1,0 z m 0,40 -11.55,20 23.1,0 z m 0,-80 -11.55,20 23.1,0 z m -11.55,-20 -11.54,20 23.09,0 z m 0,40 -11.54,-20 23.09,0 z m -11.54,-20 -11.55,-20 23.09,0 z m -11.55,-20 -11.55,20 23.1,0 z m 11.55,-20 -11.55,20 23.09,0 z m -23.1,80 -11.55,-20 23.1,0 z m 11.55,-20 -11.55,-20 23.1,0 z m -23.1,0 -11.54,20 23.09,0 z m 11.55,-20 -11.55,20 23.1,0 z m -23.09,80 -11.55,-20 23.09,0 z m 11.54,-20 -11.54,-20 23.09,0 z m -23.09,0 -11.55,20 23.1,0 z m 11.55,-20 -11.55,20 23.09,0 z m -11.55,60 -11.55,-20 23.1,0 z m -11.55,-20 -11.54,20 23.09,0 z"
     inkscape:connector-curvature="0" />
  <path
     id="polygon1070"
     style="fill:#000000;fill-opacity:1;stroke:none;stroke-width:1;stroke-linejoin:bevel;stroke-opacity:1"
     d="m 505.3955,360.75 -11.55,-20 23.09,0 z m -11.55,-20 -11.55,20 23.1,0 z m 11.55,-20 -11.55,20 23.09,0 z m -23.1,80 -11.54,-20 23.09,0 z m 11.55,-20 -11.55,-20 23.1,0 z m -11.55,-20 -11.54,-20 23.09,0 z m 11.55,-20 -11.55,-20 23.1,0 z m -23.09,40 -11.55,20 23.09,0 z m 11.54,-20 -11.54,20 23.09,0 z m 0,-40 -11.54,20 23.09,0 z m -23.09,120 -11.55,-20 23.1,0 z m 11.55,-20 -11.55,-20 23.09,0 z m 0,-80 -11.55,-20 23.09,0 z m -23.1,80 -11.55,20 23.1,0 z m 11.55,-20 -11.55,20 23.1,0 z m 0,-80 -11.55,20 23.1,0 z m -11.55,140 -11.55,-20 23.1,0 z m 0,-120 -11.55,-20 23.1,0 z m -11.55,100 -11.54,20 23.09,0 z m 0,-120 -11.54,20 23.09,0 z m -11.54,140 -11.55,-20 23.09,0 z m -11.55,-100 -11.55,-20 23.1,0 z m 11.55,-20 -11.55,-20 23.09,0 z m -11.55,100 -11.55,20 23.1,0 z m -11.55,-100 -11.54,20 23.09,0 z m 11.55,-20 -11.55,20 23.1,0 z m -11.55,140 -11.54,-20 23.09,0 z m -11.54,-60 -11.55,-20 23.09,0 z m 11.54,-20 -11.54,-20 23.09,0 z m -11.54,60 -11.55,20 23.09,0 z m -11.55,-20 -11.55,20 23.1,0 z m 0,-40 -11.55,20 23.1,0 z m 11.55,-20 -11.55,20 23.09,0 z m -11.55,100 -11.55,-20 23.1,0 z m -11.55,-20 -11.55,-20 23.1,0 z m 11.55,-20 -11.55,-20 23.1,0 z m -11.55,20 -11.55,20 23.1,0 z m -11.54,-20 -11.55,20 23.09,0 z m 11.54,-20 -11.55,20 23.1,0 z m -11.54,60 -11.55,-20 23.09,0 z"
     inkscape:connector-curvature="0" />
  <path
     id="polygon1352"
     style="fill:#000000;fill-opacity:1;stroke:none;stroke-width:1;stroke-linejoin:bevel;stroke-opacity:1"
     d="m 679.89077,360.75 -11.55,-20 23.1,0 z m -11.55,-20 -11.54,20 23.09,0 z m 11.55,-20 -11.55,20 23.1,0 z m -23.09,80 -11.55,-20 23.09,0 z m 11.54,-20 -11.54,-20 23.09,0 z m 0,-40 -11.54,-20 23.09,0 z m -23.09,40 -11.55,20 23.1,0 z m 11.55,-20 -11.55,20 23.09,0 z m 0,-40 -11.55,20 23.09,0 z m -23.1,80 -11.54,-20 23.09,0 z m 11.55,-60 -11.55,-20 23.1,0 z m -23.09,40 -11.55,20 23.09,0 z m 11.54,-60 -11.54,20 23.09,0 z m -23.09,80 -11.55,-20 23.1,0 z m 11.55,-60 -11.55,-20 23.09,0 z m -23.1,40 -11.55,20 23.1,0 z m 11.55,-60 -11.55,20 23.1,0 z m -23.1,80 -11.54,-20 23.09,0 z m 0,-40 -11.54,-20 23.09,0 z m 11.55,-20 -11.55,-20 23.1,0 z m -23.09,40 -11.55,20 23.09,0 z m 0,-40 -11.55,20 23.09,0 z m 11.54,-20 -11.54,20 23.09,0 z m -23.09,80 -11.55,-20 23.1,0 z m 11.55,-20 -11.55,-20 23.09,0 z m -23.1,0 -11.54,20 23.09,0 z m 11.55,-20 -11.55,20 23.1,0 z m -23.09,80 -11.55,-20 23.09,0 z m 11.54,-20 -11.54,-20 23.09,0 z m -23.09,0 -11.55,20 23.1,0 z m 11.55,-20 -11.55,20 23.09,0 z m -11.55,60 -11.55,-20 23.1,0 z m -11.55,-20 -11.54,20 23.09,0 z"
     inkscape:connector-curvature="0" />
  <path
     id="polygon1678"
     style="fill:#000000;fill-opacity:1;stroke:none;stroke-width:1;stroke-linejoin:bevel;stroke-opacity:1"
     d="m 842.846,360.75 -11.54,-20 23.09,0 z m -11.54,-20 -11.55,20 23.09,0 z m 11.54,-20 -11.54,20 23.09,0 z m -23.09,80 -11.55,-20 23.1,0 z m 11.55,-20 -11.55,-20 23.09,0 z m 0,-40 -11.55,-20 23.09,0 z m -23.1,40 -11.54,20 23.09,0 z m 11.55,-20 -11.55,20 23.1,0 z m 0,-40 -11.55,20 23.1,0 z m -23.09,120 -11.55,-20 23.09,0 z m 11.54,-20 -11.54,-20 23.09,0 z m 0,-80 -11.54,-20 23.09,0 z m -23.09,80 -11.55,20 23.1,0 z m 11.55,-20 -11.55,20 23.09,0 z m 0,-80 -11.55,20 23.09,0 z m -11.55,140 -11.55,-20 23.1,0 z m -11.55,-20 -11.54,-20 23.09,0 z m 11.55,-100 -11.55,-20 23.1,0 z m -11.55,60 -11.54,20 23.09,0 z m 0,-80 -11.54,20 23.09,0 z m -11.54,140 -11.55,-20 23.09,0 z m 0,-40 -11.55,-20 23.09,0 z m -11.55,-60 -11.55,-20 23.1,0 z m 11.55,-20 -11.55,-20 23.09,0 z m -11.55,100 -11.55,20 23.1,0 z m -11.55,-100 -11.55,20 23.1,0 z m 11.55,-20 -11.55,20 23.1,0 z m -11.55,140 -11.55,-20 23.1,0 z m -11.55,-60 -11.54,-20 23.09,0 z m 11.55,-20 -11.55,-20 23.1,0 z m -11.55,60 -11.54,20 23.09,0 z m -11.54,-60 -11.55,20 23.09,0 z m 11.54,-20 -11.54,20 23.09,0 z m -11.54,100 -11.55,-20 23.09,0 z m -11.55,-20 -11.55,-20 23.1,0 z m 11.55,-20 -11.55,-20 23.09,0 z m -11.55,20 -11.55,20 23.1,0 z m -11.55,-20 -11.54,20 23.09,0 z m 11.55,-20 -11.55,20 23.1,0 z m -11.55,60 -11.54,-20 23.09,0 z"
     inkscape:connector-curvature="0" />
  <path
     id="polygon1846"
     style="fill:#000000;fill-opacity:1;stroke:none;stroke-width:1;stroke-linejoin:bevel;stroke-opacity:1"
     d="m 1017.3562,360.75 -11.55,-20 23.1001,0 z m -11.55,-20 -11.54992,20 23.10002,0 z m 11.55,-20 -11.55,20 23.1001,0 z m -11.55,60 -11.54992,-20 23.10002,0 z m 0,-40 -11.54992,-20 23.10002,0 z m -23.08992,40 -11.55,20 23.09,0 z m 11.54,-20 -11.54,20 23.08992,0 z m 0,-40 -11.54,20 23.08992,0 z m -23.09,120 -11.55,-20 23.1,0 z m 11.55,-20 -11.55,-20 23.09,0 z m -11.55,-20 -11.55,-20 23.1,0 z m 11.55,-60 -11.55,-20 23.09,0 z m -23.1,80 -11.54,20 23.09,0 z m 11.55,-20 -11.55,20 23.1,0 z m -11.55,-20 -11.54,20 23.09,0 z m 11.55,-60 -11.55,20 23.1,0 z m -11.55,140 -11.54,-20 23.09,0 z m -11.54,-60 -11.55,-20 23.09,0 z m 11.54,-60 -11.54,-20 23.09,0 z m -11.54,100 -11.55,20 23.09,0 z m -11.55,-60 -11.55,20 23.1,0 z m 11.55,-60 -11.55,20 23.09,0 z m -23.1,80 -11.54,-20 23.09,0 z m 0,-40 -11.54,-20 23.09,0 z m 11.55,-20 -11.55,-20 23.1,0 z m -23.09,40 -11.55,20 23.09,0 z m 0,-40 -11.55,20 23.09,0 z m 11.54,-20 -11.54,20 23.09,0 z m -23.09,80 -11.55,-20 23.1,0 z m 11.55,-20 -11.55,-20 23.09,0 z m -23.1,0 -11.55,20 23.1,0 z m 11.55,-20 -11.55,20 23.1,0 z m -23.1,80 -11.54,-20 23.09,0 z m 11.55,-20 -11.55,-20 23.1,0 z m -23.09,0 -11.55,20 23.09,0 z m 11.54,-20 -11.54,20 23.09,0 z m -11.54,60 -11.55,-20 23.09,0 z m -11.55,-20 -11.55,20 23.1,0 z"
     inkscape:connector-curvature="0" />
  <path
     id="polygon502"
     style="fill:#000000;fill-opacity:1;stroke:none;stroke-width:1;stroke-linejoin:bevel;stroke-opacity:1"
     d="m 162.16,480.875 -11.55,20 23.09,0 z m -23.1,80 -11.55,-20 23.1,0 z m 11.55,-60 -11.55,-20 23.1,0 z m -23.1,40 -11.54,20 23.09,0 z m 11.55,-60 -11.55,20 23.1,0 z m -23.09,120 -11.55,-20 23.09,0 z m 11.54,-20 -11.54,-20 23.09,0 z m -11.54,-20 -11.55,-20 23.09,0 z m 11.54,-60 -11.54,-20 23.09,0 z m -23.09,80 -11.55,20 23.1,0 z m 11.55,-20 -11.55,20 23.09,0 z m -11.55,-20 -11.55,20 23.1,0 z m 11.55,-60 -11.55,20 23.09,0 z m -11.55,140 -11.55,-20 23.1,0 z m -11.55,-60 -11.54,-20 23.09,0 z m 11.55,-60 -11.55,-20 23.1,0 z m -11.55,100 -11.54,20 23.09,0 z m -11.54,-60 -11.55,20 23.09,0 z m 11.54,-60 -11.54,20 23.09,0 z m -11.54,140 -11.55,-20 23.09,0 z m -11.55,-60 -11.55,-20 23.1,0 z m 0,-40 -11.55,-20 23.1,0 z m 11.55,-20 -11.55,-20 23.09,0 z m -11.55,100 -11.55,20 23.1,0 z m -11.55,-60 -11.54,20 23.09,0 z m 0,-40 -11.54,20 23.09,0 z m 11.55,-20 -11.55,20 23.1,0 z m -11.55,140 -11.54,-20 23.09,0 z m -11.54,-60 -11.55,-20 23.09,0 z m 11.54,-20 -11.54,-20 23.09,0 z m -11.54,60 -11.55,20 23.09,0 z m -11.55,-60 -11.55,20 23.1,0 z m 11.55,-20 -11.55,20 23.09,0 z m -11.55,100 -11.55,-20 23.1,0 z m -11.55,-20 -11.54,20 23.09,0 z m -11.54,20 -11.55,-20 23.09,0 z"
     inkscape:connector-curvature="0" />
  <path
     id="polygon862"
     style="fill:#000000;fill-opacity:1;stroke:none;stroke-width:1;stroke-linejoin:bevel;stroke-opacity:1"
     d="m 307.72403,520.875 -11.55,-20 23.1,0 z m 11.55,-20 -11.55,-20 23.09,0 z m -11.55,-20 -11.55,20 23.1,0 z m -11.55,20 -11.54,-20 23.09,0 z m -11.54,-20 -11.55,20 23.09,0 z m -23.1,40 -11.55,-20 23.1,0 z m 11.55,-20 -11.55,-20 23.1,0 z m -23.09,0 -11.55,20 23.09,0 z m 11.54,-20 -11.55,20 23.1,0 z m -23.09,80 -11.55,-20 23.1,0 z m 11.55,-20 -11.55,-20 23.09,0 z m 0,-40 -11.55,-20 23.09,0 z m -23.1,40 -11.55,20 23.1,0 z m 11.55,-20 -11.55,20 23.1,0 z m 0,-40 -11.55,20 23.1,0 z m -23.1,120 -11.54,-20 23.09,0 z m 11.55,-20 -11.55,-20 23.1,0 z m 0,-80 -11.55,-20 23.1,0 z m -23.09,80 -11.55,20 23.09,0 z m 11.54,-20 -11.54,20 23.09,0 z m 0,-80 -11.54,20 23.09,0 z m -11.54,140 -11.55,-20 23.09,0 z m -11.55,-20 -11.55,20 23.1,0 z"
     inkscape:connector-curvature="0" />
  <path
     id="polygon1180"
     style="fill:#000000;fill-opacity:1;stroke:none;stroke-width:1;stroke-linejoin:bevel;stroke-opacity:1"
     d="m 493.69304,520.875 -11.54,-20 23.09,0 z m 11.55,-20 -11.55,-20 23.1,0 z m -23.09,0 -11.55,20 23.09,0 z m 11.54,-20 -11.54,20 23.09,0 z m -23.09,80 -11.55,-20 23.1,0 z m 11.55,-20 -11.55,-20 23.09,0 z m -23.1,0 -11.54,20 23.09,0 z m 11.55,-20 -11.55,20 23.1,0 z m -23.09,80 -11.55,-20 23.09,0 z m 11.54,-20 -11.54,-20 23.09,0 z m -23.09,0 -11.55,20 23.1,0 z m 11.55,-20 -11.55,20 23.09,0 z m -11.55,60 -11.55,-20 23.1,0 z m -11.55,-20 -11.54,20 23.09,0 z m -11.54,20 -11.55,-20 23.09,0 z m -11.55,-100 -11.55,-20 23.1,0 z m 11.55,-20 -11.55,-20 23.09,0 z m -11.55,100 -11.55,20 23.1,0 z m -11.55,-100 -11.55,20 23.1,0 z m 11.55,-20 -11.55,20 23.1,0 z m -11.55,140 -11.55,-20 23.1,0 z m -11.55,-60 -11.54,-20 23.09,0 z m 11.55,-20 -11.55,-20 23.1,0 z m -11.55,60 -11.54,20 23.09,0 z m -11.54,-20 -11.55,20 23.09,0 z m 0,-40 -11.55,20 23.09,0 z m 11.54,-20 -11.54,20 23.09,0 z m -11.54,100 -11.55,-20 23.09,0 z m -11.55,-20 -11.55,-20 23.1,0 z m 11.55,-20 -11.55,-20 23.09,0 z m -11.55,20 -11.55,20 23.1,0 z m -11.55,-20 -11.54,20 23.09,0 z m 11.55,-20 -11.55,20 23.1,0 z m -11.55,60 -11.54,-20 23.09,0 z"
     inkscape:connector-curvature="0" />
  <path
     id="polygon1468"
     style="fill:#000000;fill-opacity:1;stroke:none;stroke-width:1;stroke-linejoin:bevel;stroke-opacity:1"
     d="m 668.13702,520.875 -11.55,-20 23.1,0 z m 11.55,-20 -11.55,-20 23.09,0 z m -23.1,0 -11.55,20 23.1,0 z m 11.55,-20 -11.55,20 23.1,0 z m -23.1,80 -11.54,-20 23.09,0 z m 11.55,-20 -11.55,-20 23.1,0 z m -23.09,0 -11.55,20 23.09,0 z m 11.54,-20 -11.54,20 23.09,0 z m -34.64,60 -11.54,-20 23.09,0 z m -11.54,-20 -11.55,20 23.09,0 z m -23.1,40 -11.54,-20 23.09,0 z m 0,-80 -11.54,-20 23.09,0 z m 11.55,-20 -11.55,-20 23.1,0 z m -23.09,80 -11.55,20 23.09,0 z m 0,-80 -11.55,20 23.09,0 z m 11.54,-20 -11.54,20 23.09,0 z m -23.09,80 -11.55,-20 23.1,0 z m 11.55,-20 -11.55,-20 23.09,0 z m -23.1,0 -11.55,20 23.1,0 z m 11.55,-20 -11.55,20 23.1,0 z m -11.55,100 -11.55,-20 23.1,0 z m -11.55,-20 -11.54,-20 23.09,0 z m 11.55,-20 -11.55,-20 23.1,0 z m -11.55,20 -11.54,20 23.09,0 z m -11.54,-20 -11.55,20 23.09,0 z m 11.54,-20 -11.54,20 23.09,0 z m -11.54,60 -11.55,-20 23.09,0 z m -11.55,-20 -11.55,20 23.1,0 z"
     inkscape:connector-curvature="0" />
  <path
     id="polygon1756"
     style="fill:#000000;fill-opacity:1;stroke:none;stroke-width:1;stroke-linejoin:bevel;stroke-opacity:1"
     d="m 836.79103,520.875 -11.54,-20 23.09,0 z m -11.54,-20 -11.55,20 23.09,0 z m 11.54,-20 -11.54,20 23.09,0 z m -23.09,80 -11.55,-20 23.1,0 z m 11.55,-20 -11.55,-20 23.09,0 z m -23.1,0 -11.55,20 23.1,0 z m 11.55,-20 -11.55,20 23.1,0 z m -23.1,80 -11.54,-20 23.09,0 z m 11.55,-20 -11.55,-20 23.1,0 z m -23.09,0 -11.55,20 23.09,0 z m 11.54,-20 -11.54,20 23.09,0 z m -11.54,60 -11.55,-20 23.09,0 z m -11.55,-60 -11.55,-20 23.1,0 z m 0,40 -11.55,20 23.1,0 z m -11.55,-60 -11.54,20 23.09,0 z m 11.55,-20 -11.55,20 23.1,0 z m -11.55,100 -11.54,-20 23.09,0 z m -11.54,-20 -11.55,-20 23.09,0 z m 11.54,-20 -11.54,-20 23.09,0 z m -11.54,-60 -11.55,-20 23.09,0 z m 0,80 -11.55,20 23.09,0 z m -11.55,-20 -11.55,20 23.1,0 z m 11.55,-20 -11.55,20 23.09,0 z m -11.55,-60 -11.55,20 23.1,0 z m 11.55,-20 -11.55,20 23.09,0 z m -11.55,140 -11.55,-20 23.1,0 z m -11.55,-60 -11.54,-20 23.09,0 z m 11.55,-20 -11.55,-20 23.1,0 z m -23.09,0 -11.55,20 23.09,0 z m 11.54,-20 -11.54,20 23.09,0 z m -11.54,100 -11.55,-20 23.09,0 z m -11.55,-20 -11.55,-20 23.1,0 z m 11.55,-20 -11.55,-20 23.09,0 z m -11.55,20 -11.55,20 23.1,0 z m -11.55,-20 -11.55,20 23.1,0 z m 11.55,-20 -11.55,20 23.1,0 z m -11.55,60 -11.55,-20 23.1,0 z"
     inkscape:connector-curvature="0" />
  <path
     id="polygon1878"
     style="fill:#000000;fill-opacity:1;stroke:none;stroke-width:1;stroke-linejoin:bevel;stroke-opacity:1"
     d="m 1005.455,520.875 -11.54996,-20 23.08996,0 z m 11.54,-20 -11.54,-20 23.09,0 z m -23.08996,0 -11.55,20 23.09996,0 z m 11.54996,-20 -11.54996,20 23.08996,0 z m -11.54996,60 -11.55,-20 23.09996,0 z m -11.55,-20 -11.54,20 23.09,0 z m -23.09,80 -11.55,-20 23.1,0 z m 11.55,-60 -11.55,-20 23.09,0 z m -23.1,40 -11.55,20 23.1,0 z m 11.55,-20 -11.55,20 23.1,0 z m 0,-40 -11.55,20 23.1,0 z m -11.55,100 -11.55,-20 23.1,0 z m 0,-40 -11.55,-20 23.1,0 z m -11.55,-20 -11.54,-20 23.09,0 z m 0,40 -11.54,20 23.09,0 z m 0,-40 -11.54,20 23.09,0 z m -11.54,-20 -11.55,20 23.09,0 z m 11.54,-20 -11.54,20 23.09,0 z m -11.54,60 -11.55,-20 23.09,0 z m 0,-40 -11.55,-20 23.09,0 z m -11.55,-20 -11.55,-20 23.1,0 z m 11.55,-20 -11.55,-20 23.09,0 z m -11.55,20 -11.55,20 23.1,0 z m -11.55,-20 -11.54,20 23.09,0 z m 11.55,-20 -11.55,20 23.1,0 z m -11.55,100 -11.54,-20 23.09,0 z m 0,-40 -11.54,-20 23.09,0 z m -11.54,20 -11.55,20 23.09,0 z m -23.1,40 -11.54,-20 23.09,0 z m 11.55,-20 -11.55,-20 23.1,0 z m -23.09,0 -11.55,20 23.09,0 z m 11.54,-20 -11.54,20 23.09,0 z m -11.54,60 -11.55,-20 23.09,0 z m -11.55,-20 -11.55,20 23.1,0 z"
     inkscape:connector-curvature="0" />
  <path
     id="polygon632"
     style="fill:#000000;fill-opacity:1;stroke:none"
     d="m 127.51,682 -11.54,-20 23.09,0 z m -11.54,-20 -11.55,20 23.09,0 z m 11.54,-20 -11.54,20 23.09,0 z m -23.09,80 -11.55,-20 23.1,0 z m 11.55,-20 -11.55,-20 23.09,0 z m -23.1,0 -11.54,20 23.09,0 z m 11.55,-20 -11.55,20 23.1,0 z m -23.09,40 -11.55,-20 23.09,0 z m -11.55,-20 -11.55,20 23.1,0 z m -11.55,20 -11.55,-20 23.1,0 z m -11.55,-20 -11.54,20 23.09,0 z m -11.54,60 -11.55,-20 23.09,0 z m 11.54,-20 -11.54,-20 23.09,0 z m -11.54,-20 -11.55,-20 23.09,0 z m 0,-40 -11.55,-20 23.09,0 z m -11.55,60 -11.55,20 23.1,0 z m 11.55,-20 -11.55,20 23.09,0 z m -11.55,-20 -11.55,20 23.1,0 z m 0,-40 -11.55,20 23.1,0 z m 11.55,-20 -11.55,20 23.09,0 z m -11.55,140 -11.55,-20 23.1,0 z M 12.04,722 0.5,702 l 23.09,0 z m 11.55,-20 -11.55,-20 23.1,0 z m -11.55,60 -11.54,20 23.09,0 z m 0,-80 -11.54,20 23.09,0 z"
     inkscape:connector-curvature="0" />
  <path
     id="polygon984"
     style="fill:#000000;fill-opacity:1;stroke:none"
     d="m 332.04723,682 -11.55,-20 23.1,0 z m 11.55,-20 -11.55,-20 23.09,0 z m -23.1,0 -11.55,20 23.1,0 z m 11.55,-20 -11.55,20 23.1,0 z m -11.55,60 -11.55,-20 23.1,0 z m 0,-40 -11.55,-20 23.1,0 z m -11.55,20 -11.54,20 23.09,0 z m 0,-40 -11.54,20 23.09,0 z m -11.54,60 -11.55,-20 23.09,0 z m 0,-40 -11.55,-20 23.09,0 z m -23.1,80 -11.54,20 23.09,0 z m 0,-40 -11.54,20 23.09,0 z m 11.55,-20 -11.55,20 23.1,0 z m 0,-40 -11.55,20 23.1,0 z m -11.55,140 -11.54,-20 23.09,0 z m -11.54,-60 -11.55,-20 23.09,0 z m 11.54,-20 -11.54,-20 23.09,0 z m 0,-40 -11.54,-20 23.09,0 z m -11.54,100 -11.55,20 23.09,0 z m -11.55,-60 -11.55,20 23.1,0 z m 11.55,-20 -11.55,20 23.09,0 z m 0,-40 -11.55,20 23.09,0 z m -11.55,140 -11.55,-20 23.1,0 z m 0,-40 -11.55,-20 23.1,0 z m -11.55,-20 -11.55,-20 23.1,0 z m 0,-40 -11.55,-20 23.1,0 z m 11.55,-20 -11.55,-20 23.1,0 z m -11.55,100 -11.55,20 23.1,0 z m 0,-40 -11.55,20 23.1,0 z m 0,-80 -11.55,20 23.1,0 z m -11.54,140 -11.55,-20 23.09,0 z m 0,-40 -11.55,-20 23.09,0 z m -11.55,20 -11.55,20 23.1,0 z m 0,-40 -11.55,20 23.1,0 z m -11.55,60 -11.55,-20 23.1,0 z m -11.55,-20 -11.54,-20 23.09,0 z m 11.55,-20 -11.55,-20 23.1,0 z m -11.55,20 -11.54,20 23.09,0 z m -11.54,-20 -11.55,20 23.09,0 z m 11.54,-20 -11.54,20 23.09,0 z m -11.54,60 -11.55,-20 23.09,0 z m -11.55,-20 -11.55,20 23.1,0 z"
     inkscape:connector-curvature="0" />
  <path
     id="polygon1106"
     style="fill:#000000;fill-opacity:1;stroke:none"
     d="m 478.83446,762 -11.55,20 23.1,0 z m -11.55,-20 -11.54,20 23.09,0 z m 0,40 -11.54,-20 23.09,0 z m -11.54,-20 -11.55,-20 23.09,0 z m 0,0 -11.55,20 23.09,0 z m -11.55,-20 -11.55,20 23.1,0 z m 11.55,-20 -11.55,20 23.09,0 z m -11.55,-20 -11.55,20 23.1,0 z m 0,80 -11.55,-20 23.1,0 z m -11.55,-20 -11.54,-20 23.09,0 z m 11.55,-20 -11.55,-20 23.1,0 z m -11.55,20 -11.54,20 23.09,0 z m -11.54,-20 -11.55,20 23.09,0 z m 11.54,-20 -11.54,20 23.09,0 z m -11.54,60 -11.55,-20 23.09,0 z m -11.55,-20 -11.55,20 23.1,0 z"
     inkscape:connector-curvature="0" />
  <path
     id="polygon1596"
     style="fill:#000000;fill-opacity:1;stroke:none"
     d="m 683.36675,682 -11.55,-20 23.09,0 z m 11.54,-20 -11.54,-20 23.09,0 z m -23.09,0 -11.55,20 23.1,0 z m 11.55,-20 -11.55,20 23.09,0 z m -23.1,80 -11.54,-20 23.09,0 z m 11.55,-20 -11.55,-20 23.1,0 z m 0,-40 -11.55,-20 23.1,0 z m -23.09,40 -11.55,20 23.09,0 z m 11.54,-20 -11.54,20 23.09,0 z m 0,-40 -11.54,20 23.09,0 z m -23.09,80 -11.55,-20 23.1,0 z m 11.55,-60 -11.55,-20 23.09,0 z m -23.1,40 -11.55,20 23.1,0 z m 11.55,-60 -11.55,20 23.1,0 z m -23.1,80 -11.54,-20 23.09,0 z m 11.55,-60 -11.55,-20 23.1,0 z m -23.09,40 -11.55,20 23.09,0 z m 11.54,-60 -11.54,20 23.09,0 z m -11.54,100 -11.55,-20 23.09,0 z m -11.55,-60 -11.55,-20 23.1,0 z m 11.55,-20 -11.55,-20 23.09,0 z m -11.55,60 -11.55,20 23.1,0 z m 0,-80 -11.55,20 23.1,0 z m -11.55,140 -11.54,-20 23.09,0 z m -11.54,-20 -11.55,20 23.09,0 z"
     inkscape:connector-curvature="0" />
  <path
     id="polygon1762"
     style="fill:#000000;fill-opacity:1;stroke:none"
     d="m 853.24898,682 -11.54,-20 23.09,0 z m -11.54,-20 -11.55,20 23.09,0 z m 11.54,-20 -11.54,20 23.09,0 z m -23.09,80 -11.55,-20 23.1,0 z m 11.55,-20 -11.55,-20 23.09,0 z m -23.1,0 -11.55,20 23.1,0 z m 11.55,-20 -11.55,20 23.1,0 z m -11.55,60 -11.55,-20 23.1,0 z m -11.55,-20 -11.54,20 23.09,0 z m -11.54,60 -11.55,-20 23.09,0 z m -11.55,-20 -11.55,20 23.1,0 z"
     inkscape:connector-curvature="0" />
  <path
     id="polygon1880"
     style="fill:#000000;fill-opacity:1;stroke:none"
     d="m 1017.3662,682 -11.55,-20 23.09,0 z m -11.55,-20 -11.55001,20 23.10001,0 z m 11.55,-20 -11.55,20 23.09,0 z m -23.10001,80 -11.54,-20 23.09001,0 z m 11.55001,-20 -11.55001,-20 23.10001,0 z m -11.55001,-20 -11.54,-20 23.09001,0 z m 11.55001,-20 -11.55001,-20 23.10001,0 z m -11.55001,20 -11.54,20 23.09001,0 z m 0,-40 -11.54,20 23.09001,0 z"
     inkscape:connector-curvature="0" />
</svg>
